<?xml version="1.0" encoding="utf-8"?>
<!-- Generator: Adobe Illustrator 20.1.0, SVG Export Plug-In . SVG Version: 6.00 Build 0)  -->
<svg version="1.1" id="Layer_1" xmlns="http://www.w3.org/2000/svg" xmlns:xlink="http://www.w3.org/1999/xlink" x="0px" y="0px"
	 viewBox="0 0 178 30" style="enable-background:new 0 0 178 30;" xml:space="preserve">
<style type="text/css">
	.st0{fill:#FFFFFF;}
	.st1{fill:#E12F21;}
	.st2{fill:#B7B325;}
</style>
<g>
	<path class="st0" d="M28.8,0.8H36L42,22l6-21.2h7.2l-9,28.8h-8.4L28.8,0.8z"/>
	<path class="st0" d="M73.9,23.3v6.3H58.6h-2.1V0.8h6.6h10.5v6.3H63.2v4.8h9.5v6.2h-9.5v5.2H73.9z"/>
	<path class="st0" d="M86.1,20.1h-2.6v9.5h-6.6V0.8h6.6h4.5c5.5,0,9.9,4.4,9.9,9.9c0,3.5-2.1,6.6-5.1,8.3l8.4,10.7h-7.7L86.1,20.1z
		 M83.5,14.4h4.5c1.8,0,3.3-1.6,3.3-3.7s-1.5-3.7-3.3-3.7h-4.5V14.4z"/>
	<path class="st1" d="M15.6,30.2c2.7,0,3.8-0.4,5.1-0.8c1-0.3,1.9-0.8,3.2-1.6c1.3-0.8,3.8-2.9,5.3-5.1c1-1.4,2.3-3.9,2.3-3.9
		s0.3-0.6,1.2-2.9c0.5-1.2,0.8-3.2,0.8-4c0-0.9-0.1-1.7-0.7-3c-0.3-0.6-0.9-1.1-1.6-1.6c-0.2-0.1-0.6-0.4-1.3-0.6
		c-1.1-0.4-2-0.4-2.8-0.3C26,6.6,25.3,6.8,24.8,7c-0.5,0.2-1.3,0.6-2,1.2C22.6,8.5,22,8.9,21.4,10c-0.7,1.2-1.1,4.1-1.1,4.1
		s-0.2,1.8-0.7,3.5c-0.5,1.7-1.1,2.9-1.5,3.7c-0.4,0.8-1.7,2.2-2.4,3c-0.6,0.6-1.9,1.7-3.8,2c-1.2,0.2-1.5,0.2-2.9,0.2
		C8,26.4,7,26.2,6.4,26.1c-0.6-0.2-1.8-0.7-2.1-0.9C4.2,25,8.6,30.3,15.6,30.2z"/>
	<path class="st0" d="M29.2,8.7c0,0-1-0.8-2.8-0.5c-1.8,0.3-2.6,1.1-2.6,1.1s-1.2,1.1-1.5,2.3c-0.3,1.3-0.4,1.7-0.5,2.4
		s-0.3,1.8-0.4,2.3c-0.1,0.5-0.6,3-1.2,4.5c-0.5,1.3-1.3,2.3-1.7,2.9c-0.3,0.6,1.6-1.1,2.1-1.9c0.5-0.8,0.9-1.3,1.6-3.4
		c0.3-0.8,0.6-2.7,0.6-2.7l0.4-2.4c0,0,0.1-1.3,0.8-2.4s1.2-1.3,1.2-1.3s0.7-0.5,1.5-0.7S28.5,8.5,29.2,8.7z"/>
	<path class="st2" d="M33.2,10.6c0,0-0.5-1.8-2.3-3c-1.8-1.2-3.7-1.3-3.7-1.3s0.6-0.8,1.7-0.9C30,5.4,31.1,6,31.1,6s1.2-1.4,2.2-2.2
		s2.3-1.5,2.6-1.5c0.2-0.1,0.6,0.2,0.7,0.5c0.1,0.3,0.1,0.6,0.1,0.6s0,0.2-0.2,0.4c-0.3,0.1-1.5,0.5-2.2,1.1s-1.8,1.5-1.9,2
		c-0.1,0.5,0.4,0.9,0.7,1.2c0.2,0.3,0.4,0.7,0.4,1.2C33.5,10,33.2,10.6,33.2,10.6z"/>
	<g>
		<path class="st0" d="M7.2,24.9c1.5,0.3,3.4,0,4.1-0.2c1.2-0.4,1.9-0.7,2.7-1.1c-3.9-0.7-6.8-3.9-6.8-8.4c0-5.2,3.7-8.6,8.4-8.6
			c2,0,3.7,0.6,5.2,1.7c0,0,0-0.1,0.1-0.1c0.7-1.1,1.4-1.5,1.7-1.8c0.8-0.6,1.7-0.9,2.3-1.1c0.5-0.2,1-0.3,1.8-0.4
			c-2.7-3-6.7-4.8-11-4.8c-8.3,0-15,6.5-15,15c0,2.5,0.6,4.8,1.6,6.9C3.1,23.5,4.5,24.5,7.2,24.9z"/>
	</g>
	<path class="st0" d="M124.1,0.8v28.8h-2.9V16.1h-13.6v13.5h-2.9V0.8h2.9v12.7h13.6V0.8H124.1z"/>
	<path class="st0" d="M129,15.2c0-8.2,6.5-14.9,14.9-14.9c8.4,0,14.9,6.7,14.9,14.9c0,8.2-6.5,14.9-14.9,14.9
		C135.5,30.1,129,23.4,129,15.2z M155.9,15.2c0-6.7-5.2-12.1-12-12.1c-6.8,0-12,5.4-12,12.1c0,6.7,5.2,12.1,12,12.1
		C150.8,27.3,155.9,21.9,155.9,15.2z"/>
	<path class="st0" d="M178.6,3.5h-8v26.1h-2.9V3.5h-8V0.8h10.9h8V3.5z"/>
</g>
</svg>
